<svg width="40" height="32" viewBox="0 0 40 32" fill="none" xmlns="http://www.w3.org/2000/svg">
<path d="M7.28203 30.9621V28.9027C7.28203 28.1137 6.8 27.5988 5.97812 27.5988C5.56172 27.5988 5.12344 27.741 4.80547 28.1793C4.56406 27.8066 4.225 27.5988 3.71015 27.5988C3.37031 27.5988 3.02031 27.6973 2.74609 28.0809V27.6645H2.03359V30.9621H2.75703V29.1434C2.75703 28.5629 3.06406 28.2887 3.54609 28.2887C4.02812 28.2887 4.26953 28.5957 4.26953 29.1434V30.9621H4.99297V29.1434C4.99297 28.5629 5.33281 28.2887 5.78203 28.2887C6.26406 28.2887 6.50547 28.5957 6.50547 29.1434V30.9621H7.28203ZM17.9641 27.6645H16.7914V26.6676H16.068V27.6645H15.4109V28.3215H16.068V29.8332C16.068 30.5895 16.375 31.0387 17.1961 31.0387C17.5031 31.0387 17.8531 30.9402 18.0836 30.7973L17.8758 30.184C17.668 30.3262 17.4266 30.359 17.2625 30.359C16.9227 30.359 16.7805 30.1512 16.7805 29.8113V28.3324H17.9531V27.6645H17.9641ZM24.0664 27.5988C23.65 27.5988 23.3766 27.8066 23.2117 28.0809V27.6645H22.4883V30.9621H23.2117V29.1105C23.2117 28.5629 23.4531 28.2559 23.9016 28.2559C24.0437 28.2559 24.2086 28.2887 24.3508 28.3215L24.5586 27.6316C24.4172 27.5988 24.2086 27.5988 24.0664 27.5988ZM14.8305 27.9387C14.4906 27.6973 14.0086 27.5988 13.4937 27.5988C12.6719 27.5988 12.1242 28.0152 12.1242 28.6613C12.1242 29.209 12.5406 29.516 13.2523 29.6254L13.5922 29.6582C13.9648 29.7238 14.1727 29.8332 14.1727 29.998C14.1727 30.2395 13.8984 30.4145 13.4164 30.4145C12.9344 30.4145 12.5617 30.2395 12.3211 30.0746L11.9812 30.6223C12.3539 30.8965 12.8687 31.0387 13.3836 31.0387C14.3477 31.0387 14.8953 30.5895 14.8953 29.9762C14.8953 29.3957 14.4461 29.0887 13.7672 28.9793L13.4273 28.9465C13.1203 28.9137 12.8797 28.848 12.8797 28.6395C12.8797 28.398 13.1211 28.2668 13.493 28.2668C13.9094 28.2668 14.3148 28.4418 14.5227 28.541L14.8305 27.9387ZM33.9922 27.5988C33.5758 27.5988 33.3023 27.8066 33.1375 28.0809V27.6645H32.4141V30.9621H33.1375V29.1105C33.1375 28.5629 33.3789 28.2559 33.8273 28.2559C33.9695 28.2559 34.1344 28.2887 34.2766 28.3215L34.4844 27.6316C34.332 27.5988 34.1234 27.5988 33.9922 27.5988ZM24.7891 29.3082C24.7891 30.3051 25.4789 31.0285 26.5422 31.0285C27.0242 31.0285 27.3641 30.9301 27.7148 30.6559L27.375 30.0754C27.1008 30.2832 26.8273 30.3824 26.5203 30.3824C25.9398 30.3824 25.5234 29.966 25.5234 29.3199C25.5234 28.7066 25.9398 28.2902 26.5203 28.2574C26.8273 28.2574 27.1008 28.3559 27.375 28.5645L27.7148 27.984C27.375 27.7098 27.025 27.6113 26.5422 27.6113C25.4797 27.5988 24.7891 28.3223 24.7891 29.3082ZM31.4508 29.3082V27.6645H30.7273V28.0809C30.4859 27.7738 30.1469 27.5988 29.6977 27.5988C28.7664 27.5988 28.0539 28.3223 28.0539 29.3191C28.0539 30.316 28.7773 31.0395 29.6977 31.0395C30.1797 31.0395 30.5195 30.8645 30.7273 30.5574V30.9738H31.4508V29.3082ZM28.8102 29.3082C28.8102 28.7277 29.1828 28.2457 29.807 28.2457C30.3875 28.2457 30.8039 28.6949 30.8039 29.3082C30.8039 29.8887 30.3875 30.3707 29.807 30.3707C29.1828 30.3379 28.8102 29.8996 28.8102 29.3082ZM20.1875 27.5988C19.2234 27.5988 18.5437 28.2887 18.5437 29.3191C18.5437 30.3488 19.2336 31.0395 20.2312 31.0395C20.7133 31.0395 21.1953 30.8973 21.568 30.5902L21.2281 30.0754C20.9539 30.2832 20.6148 30.4152 20.2641 30.4152C19.8148 30.4152 19.3766 30.2074 19.2672 29.6262H21.6992V29.352C21.7328 28.2777 21.1187 27.5988 20.1875 27.5988ZM20.1875 28.2121C20.6367 28.2121 20.9437 28.4863 21.0094 29.0012H19.2891C19.3664 28.5629 19.6727 28.2121 20.1875 28.2121ZM38.0789 29.3082V26.3613H37.3555V28.0816C37.1141 27.7746 36.775 27.5996 36.3258 27.5996C35.3945 27.5996 34.682 28.323 34.682 29.3199C34.682 30.3168 35.4055 31.0402 36.3258 31.0402C36.8078 31.0402 37.1477 30.8652 37.3555 30.5582V30.9746H38.0789V29.3082ZM35.4273 29.3082C35.4273 28.7277 35.8 28.2457 36.4242 28.2457C37.0047 28.2457 37.4211 28.6949 37.4211 29.3082C37.4211 29.8887 37.0047 30.3707 36.4242 30.3707C35.8109 30.3379 35.4273 29.8996 35.4273 29.3082ZM11.3352 29.3082V27.6645H10.6117V28.0809C10.3703 27.7738 10.0312 27.5988 9.58203 27.5988C8.65078 27.5988 7.93828 28.3223 7.93828 29.3191C7.93828 30.316 8.66172 31.0395 9.58203 31.0395C10.0641 31.0395 10.4039 30.8645 10.6117 30.5574V30.9738H11.3352V29.3082ZM8.6625 29.3082C8.6625 28.7277 9.03515 28.2457 9.65937 28.2457C10.2398 28.2457 10.6562 28.6949 10.6562 29.3082C10.6562 29.8887 10.2398 30.3707 9.65937 30.3707C9.03437 30.3379 8.6625 29.8996 8.6625 29.3082Z" fill="black"/>
<path d="M25.4133 2.64062H14.6V22.0656H25.4133V2.64062Z" fill="#FF5F00"/>
<path d="M15.2797 12.3586C15.2797 8.41484 17.1313 4.90859 19.9797 2.64062C17.8867 0.996875 15.2469 0 12.3547 0C5.52891 0 -0.00390625 5.52187 -0.00390625 12.3586C-0.00390625 19.1844 5.51797 24.7172 12.3547 24.7172C15.2359 24.7172 17.8766 23.7203 19.9797 22.0766C17.1313 19.8414 15.2797 16.3031 15.2797 12.3586Z" fill="#EB001B"/>
<path d="M39.9961 12.3586C39.9961 19.1844 34.4742 24.7172 27.6375 24.7172C24.7562 24.7172 22.1156 23.7203 20.0125 22.0766C22.8937 19.8086 24.7125 16.3141 24.7125 12.3586C24.7125 8.41484 22.8609 4.90859 20.0125 2.64062C22.1055 0.996875 24.7453 0 27.6375 0C34.4742 0.00078125 39.9961 5.55547 39.9961 12.3586Z" fill="#F79E1B"/>
</svg>
